<?xml version="1.0" standalone="no"?>
<!DOCTYPE svg PUBLIC "-//W3C//DTD SVG 20010904//EN"
 "http://www.w3.org/TR/2001/REC-SVG-20010904/DTD/svg10.dtd">
<svg version="1.0" xmlns="http://www.w3.org/2000/svg"
 width="896.000000pt" height="896.000000pt" viewBox="0 0 896.000000 896.000000"
 preserveAspectRatio="xMidYMid meet">
<metadata>
Created by potrace 1.14, written by Peter Selinger 2001-2017
</metadata>
<g transform="translate(0.000000,896.000000) scale(0.100000,-0.100000)"
fill="#000000" stroke="none">
<path d="M4746 8953 c-1 -2 -43 -5 -92 -8 -49 -2 -120 -7 -159 -11 -38 -3 -88
-7 -110 -9 -74 -6 -297 -37 -356 -49 -14 -3 -41 -8 -60 -10 -19 -3 -34 -5 -34
-6 0 -2 -22 -6 -70 -14 -64 -11 -367 -87 -403 -102 -18 -7 -35 -13 -37 -14 -3
0 -6 0 -7 -1 -2 0 -11 -2 -20 -4 -15 -3 -47 -13 -128 -43 -8 -3 -20 -6 -25 -7
-6 -2 -32 -12 -57 -24 -26 -11 -49 -21 -52 -21 -2 0 -25 -9 -50 -20 -26 -11
-50 -20 -54 -21 -21 -5 -267 -133 -270 -141 -2 -4 -8 -8 -14 -8 -9 0 -226
-137 -238 -150 -3 -3 -44 -35 -91 -72 -106 -83 -247 -222 -328 -325 -33 -43
-67 -86 -76 -95 -8 -10 -15 -20 -15 -23 0 -2 -20 -36 -45 -74 -25 -38 -45 -74
-45 -79 0 -5 -7 -15 -15 -22 -8 -7 -13 -16 -10 -20 3 -4 -3 -18 -13 -31 -15
-20 -65 -131 -67 -149 0 -3 -6 -15 -13 -27 -7 -13 -10 -23 -6 -23 3 0 2 -6 -4
-13 -17 -20 -103 -332 -104 -377 0 -8 -4 -35 -8 -60 -21 -119 -30 -247 -35
-510 -4 -260 -11 -389 -30 -570 -6 -66 -16 -135 -20 -150 -3 -8 -7 -31 -10
-50 -5 -30 -40 -187 -48 -215 -11 -37 -42 -126 -54 -155 -35 -84 -78 -176 -89
-190 -6 -8 -15 -26 -19 -40 -4 -14 -11 -30 -16 -36 -8 -9 -99 -183 -157 -299
-14 -27 -28 -52 -31 -55 -3 -3 -15 -23 -26 -45 -11 -22 -30 -57 -42 -77 -13
-21 -22 -39 -21 -39 2 -1 98 -2 213 -3 243 -3 303 -10 364 -42 50 -26 114 -92
141 -144 40 -79 43 -123 40 -735 -4 -962 -3 -1050 13 -1120 3 -11 8 -40 11
-65 24 -178 106 -315 225 -378 14 -8 33 -15 41 -17 8 -3 40 -11 70 -20 30 -8
84 -18 120 -21 105 -9 302 -10 307 -1 2 4 10 4 16 0 7 -4 201 -8 432 -8 l420
-1 56 -26 c86 -42 170 -137 187 -213 2 -11 6 -387 8 -835 2 -448 3 -821 4
-827 0 -10 340 -13 1665 -13 916 0 1665 3 1665 7 0 6 -42 81 -91 163 -47 80
-139 293 -187 435 -73 215 -138 512 -157 720 -2 22 -7 74 -11 115 -21 234 -3
615 42 855 2 10 6 37 10 60 9 62 58 278 72 315 3 8 6 20 8 27 6 30 54 187 70
228 4 11 8 23 9 28 2 4 4 9 5 12 1 3 3 8 5 13 1 4 5 16 10 27 4 11 19 49 33
85 38 99 106 255 156 358 25 51 46 97 46 102 0 6 4 10 8 10 4 0 13 12 19 27
11 27 50 98 116 213 18 30 37 63 42 72 6 10 43 72 83 138 39 66 72 125 72 130
0 4 7 15 15 24 31 30 231 443 239 491 1 6 4 15 8 20 6 10 67 198 73 225 2 8
13 56 25 105 27 111 28 119 35 170 3 22 8 51 10 65 13 63 15 78 20 118 31 260
39 415 40 737 0 257 -7 409 -19 446 -3 8 -7 37 -10 64 -3 28 -8 61 -11 75 -3
14 -7 39 -10 55 -20 138 -139 513 -195 612 -5 10 -18 38 -30 63 -19 44 -27 59
-99 185 -100 176 -227 339 -401 515 -164 165 -267 250 -455 373 -92 60 -297
176 -320 181 -5 2 -35 14 -65 28 -76 36 -221 92 -305 118 -38 12 -81 26 -95
31 -14 4 -36 11 -50 13 -14 3 -41 10 -60 16 -19 6 -51 13 -70 16 -19 3 -51 9
-70 14 -20 6 -54 12 -75 15 -22 3 -49 7 -61 9 -19 4 -72 11 -169 23 -43 5
-574 11 -579 6z"/>
</g>
</svg>
